<?xml version="1.0" encoding="UTF-8"?>
<svg id="Layer_1" data-name="Layer 1" xmlns="http://www.w3.org/2000/svg" viewBox="0 0 480 152.97">
  <defs>
    <style>
      .cls-1 {
        fill: #073568;
      }

      .cls-1, .cls-2 {
        stroke-width: 0px;
      }

      .cls-2 {
        fill: #f04e3e;
      }
    </style>
  </defs>
  <g>
    <path class="cls-1" d="m154.07,91.5c0,2.27-.34,4.19-1.01,5.74-.67,1.55-1.65,2.73-2.94,3.53-1.29.8-2.86,1.2-4.72,1.2s-3.29-.35-4.57-1.06c-1.28-.71-2.29-1.73-3.03-3.06-.73-1.33-1.12-2.94-1.17-4.82h-14.99c-.02,4.73.98,8.66,3.03,11.77,2.04,3.12,4.81,5.44,8.3,6.96,3.49,1.52,7.38,2.28,11.67,2.28,4.82,0,9.05-.92,12.7-2.75,3.64-1.83,6.49-4.44,8.54-7.82,2.05-3.39,3.08-7.37,3.08-11.97v-49.67h-14.89v49.67Z"/>
    <path class="cls-1" d="m219.47,62.41c-3.93-2.31-8.6-3.46-14-3.46s-10.07,1.15-14,3.46c-3.93,2.31-6.96,5.53-9.1,9.67-2.13,4.14-3.2,8.97-3.2,14.49s1.07,10.28,3.2,14.42c2.13,4.14,5.17,7.36,9.1,9.67,3.93,2.31,8.6,3.46,14,3.46s10.07-1.15,14-3.46c3.93-2.31,6.96-5.53,9.09-9.67,2.13-4.14,3.2-8.94,3.2-14.42s-1.07-10.35-3.2-14.49c-2.13-4.14-5.16-7.36-9.09-9.67Zm-4.04,32.37c-.85,2.43-2.09,4.35-3.74,5.76-1.65,1.4-3.7,2.1-6.16,2.1s-4.56-.7-6.24-2.1c-1.68-1.4-2.95-3.32-3.79-5.76-.85-2.44-1.27-5.21-1.27-8.31s.42-5.88,1.27-8.31c.85-2.44,2.11-4.36,3.79-5.77,1.68-1.41,3.76-2.12,6.24-2.12s4.51.71,6.16,2.12c1.65,1.41,2.89,3.34,3.74,5.77.85,2.43,1.27,5.2,1.27,8.31s-.42,5.88-1.27,8.31Z"/>
    <rect class="cls-1" x="241.3" y="59.64" width="14.82" height="53.42"/>
    <path class="cls-1" d="m248.75,37.77c-2.2,0-4.09.74-5.65,2.21-1.56,1.47-2.35,3.23-2.35,5.27s.78,3.83,2.35,5.3c1.57,1.47,3.45,2.21,5.65,2.21s4.09-.73,5.65-2.21c1.56-1.47,2.35-3.24,2.35-5.3s-.78-3.8-2.35-5.27c-1.56-1.47-3.45-2.21-5.65-2.21Z"/>
    <path class="cls-1" d="m308.76,61.38c-2.76-1.62-5.99-2.44-9.7-2.44-3.96,0-7.34.91-10.12,2.73-2.78,1.82-4.76,4.28-5.95,7.39h-.63v-9.42h-14.12v53.42h14.82v-30.89c.02-2.29.46-4.26,1.3-5.89.85-1.64,2.03-2.88,3.55-3.74,1.52-.86,3.27-1.29,5.27-1.29,2.96,0,5.3.92,6.99,2.76,1.69,1.85,2.53,4.4,2.51,7.67v31.37h14.82v-34.02c0-4.15-.77-7.73-2.3-10.73-1.53-3-3.67-5.32-6.43-6.94Z"/>
    <path class="cls-1" d="m370.61,65.7c-2.29-2.25-4.95-3.94-8-5.06-3.05-1.13-6.34-1.69-9.86-1.69-5.24,0-9.8,1.16-13.69,3.48-3.88,2.32-6.89,5.55-9.03,9.7-2.13,4.15-3.2,8.97-3.2,14.47s1.07,10.51,3.2,14.63c2.13,4.11,5.18,7.29,9.13,9.53,3.96,2.24,8.68,3.36,14.18,3.36,4.4,0,8.29-.68,11.67-2.04,3.37-1.36,6.13-3.26,8.28-5.7,2.14-2.45,3.56-5.32,4.26-8.61l-13.7-.9c-.51,1.35-1.25,2.48-2.23,3.41-.97.93-2.14,1.62-3.51,2.09-1.37.46-2.87.7-4.52.7-2.48,0-4.63-.52-6.43-1.57-1.81-1.04-3.2-2.53-4.19-4.45-.99-1.93-1.48-4.21-1.48-6.85v-.03h36.38v-4.07c0-4.54-.64-8.52-1.91-11.91-1.28-3.4-3.06-6.22-5.34-8.47Zm-29.07,15.27c.09-1.91.54-3.68,1.43-5.27.97-1.73,2.32-3.11,4.05-4.14,1.73-1.03,3.72-1.55,5.96-1.55s4.05.47,5.69,1.41c1.64.94,2.92,2.23,3.85,3.88.93,1.65,1.39,3.54,1.39,5.67h-22.37Z"/>
    <path class="cls-1" d="m415.53,58.88c-2.99,0-5.63.85-7.93,2.56-2.3,1.7-3.93,4.22-4.9,7.53h-.56v-9.32h-14.36v53.42h14.82v-30.22c0-2.18.49-4.11,1.48-5.77.98-1.67,2.33-2.97,4.04-3.91,1.7-.94,3.64-1.41,5.82-1.41,1.02,0,2.14.08,3.37.25,1.23.16,2.19.35,2.89.56v-13.15c-.65-.16-1.4-.29-2.26-.38-.86-.09-1.66-.14-2.4-.14Z"/>
    <path class="cls-1" d="m464.31,59.64l-11.17,39.23h-.55l-11.06-39.23h-15.58l19.16,54.95-.87,2.26c-.65,1.67-1.49,2.85-2.52,3.55-1.03.7-2.25,1.02-3.65.97-1.4-.04-2.98-.34-4.71-.87l-3.34,11.06c1.07.44,2.41.81,4.05,1.1,1.64.29,3.39.43,5.27.43,3.66,0,6.8-.59,9.39-1.76,2.6-1.17,4.75-2.83,6.45-4.97,1.7-2.15,3.06-4.66,4.05-7.53l20.76-59.2h-15.69Z"/>
  </g>
  <path class="cls-1" d="m23.56,51.44h0S1.78,39.02,1.78,39.02c-.16-.09-.33-.13-.51-.13s-.36.05-.51.14c-.32.18-.51.52-.51.89l.35,65.02c0,.92.5,1.77,1.3,2.22l20.95,11.94c.44.25.97.25,1.4,0,.44-.26.7-.71.69-1.22l-.35-64.65c0-.74-.41-1.42-1.05-1.79Z"/>
  <path class="cls-1" d="m30.17,119.4c.44.25.96.25,1.39,0l14.85-8.65c8.04-4.68,13-13.37,12.95-22.67l-.1-18.41c0-.23-.12-.44-.33-.56-.2-.11-.44-.11-.64,0l-9.52,5.55c-.69.4-1.51.41-2.2.01-.69-.39-1.11-1.1-1.11-1.9l-.14-28.11c0-.37-.19-.7-.52-.88-.32-.18-.7-.18-1.02,0l-13.64,7.94c-.64.37-1.03,1.06-1.03,1.8l.34,64.67c0,.5.27.95.7,1.2Z"/>
  <path class="cls-2" d="m23.08,125.34L1.83,113.23c-.16-.09-.33-.13-.51-.13s-.36.05-.52.14c-.32.19-.51.52-.5.88l.13,24.75c0,.92.51,1.77,1.3,2.23l19.94,11.35c.65.37,1.43.37,2.09-.01.65-.38,1.04-1.06,1.03-1.81l-.12-22.56c0-1.12-.62-2.17-1.59-2.73Z"/>
  <path class="cls-2" d="m88.14,19.65c0-.37-.2-.7-.52-.88-.32-.18-.7-.18-1.02,0l-35.29,20.62c-.73.42-1.17,1.21-1.17,2.05l.14,25.9c0,.17.09.32.24.41.15.08.32.08.47,0l10.41-6.07c.27-.16.58-.24.89-.24s.6.08.88.23c.56.32.89.89.89,1.53l.14,25.77c.02,3.45-.58,6.86-1.78,10.16-.52,1.42-1.14,2.79-1.85,4.08-.14.26-2.06,3.3-3.04,4.5-2.23,2.73-4.88,4.99-7.88,6.74l-18.57,10.83c-.97.57-1.57,1.62-1.57,2.74l.12,22.57c0,.75.4,1.43,1.05,1.8.65.37,1.43.37,2.09,0l32.62-18.98c14.37-8.36,23.23-23.88,23.14-40.5l-.4-73.25Z"/>
  <path class="cls-2" d="m24.95,22.84h0l21.44,12.31c.81.47,1.81.46,2.62,0l35.16-20.54c.32-.19.51-.52.51-.89,0-.37-.19-.7-.52-.88L62.78.61c-.42-.24-.9-.36-1.38-.36s-.97.13-1.4.38L24.94,21.08c-.32.19-.51.52-.5.88,0,.37.19.7.51.88Z"/>
  <path class="cls-1" d="m41.34,37.84l-21.85-12.54c-.27-.15-.58-.24-.89-.24s-.63.08-.91.24l-13.87,8.08c-.32.19-.51.52-.51.89,0,.37.19.7.51.88l21.63,12.32c.74.42,1.65.41,2.38-.01l13.5-7.85c.32-.19.51-.52.51-.89,0-.37-.19-.7-.51-.88Z"/>
</svg>