<svg id="Layer_1" data-name="Layer 1" xmlns="http://www.w3.org/2000/svg" viewBox="0 0 376 81.8"><defs><style>.cls-1{fill:#0099d8;}.cls-2{fill:#39607a;}.cls-3{fill:#fff;}.cls-4{fill:#c6d92c;}.cls-5{fill:#2bb56d;}.cls-6{fill:#1d6381;}</style></defs><path class="cls-1" d="M110.91,42.27c0-5,5.26-9.24,11.44-9.24,5.86,0,11.84,2.66,12.11,9.77h-7.72c-.13-2.32-2.39-3.19-4.19-3.19-2,0-3.92.73-3.92,3.06,0,1.26,1.46,2.13,3.26,2.6l5.18,1.26c7.19,1.86,8.12,6.85,8.12,9.31,0,6.32-6.25,9.58-12.71,9.58-6.12,0-12.37-3.72-12.5-10.44h7.58c.2,2.19,2.73,4.06,5.72,3.92,2.26-.06,4.06-1.33,4.06-3.12.07-1.6-1.13-2.4-3.39-2.93l-4.26-1.07C111.64,49.59,110.91,45.93,110.91,42.27Z" transform="translate(-3 -3.01)"/><path class="cls-1" d="M176.17,49.12c0-9.78,7.32-16.09,16.16-16.09s16.17,6.31,16.17,16.09a16.17,16.17,0,1,1-32.33,0Zm24.28,0a8.12,8.12,0,0,0-16.23,0,8.12,8.12,0,1,0,16.23,0Z" transform="translate(-3 -3.01)"/><path class="cls-1" d="M248.35,64.76h-6.79l-6.92-20.83-6.71,20.83h-6.72L209.77,33.69h8.64l6.32,19.62L231,33.69h7.18l6.32,19.62,6.32-19.62h8.65Z" transform="translate(-3 -3.01)"/><path class="cls-2" d="M285.87,60.57c-1.73,3.12-5.72,4.85-9.78,4.85-8.12,0-15.23-6.32-15.23-16.16S267.91,33,276.09,33c4.12,0,8.05,1.66,9.78,4.78v-21h8.05v48h-8.05Zm-8.45-19.83a8,8,0,0,0-8.18,8.38c0,5.13,3.66,8.52,8.18,8.52a8.2,8.2,0,0,0,8.31-8.52A8.15,8.15,0,0,0,277.42,40.74Z" transform="translate(-3 -3.01)"/><path class="cls-2" d="M305.49,16.79a4.9,4.9,0,1,1,0,9.78,5.07,5.07,0,0,1-5.25-4.92A5.06,5.06,0,0,1,305.49,16.79Z" transform="translate(-3 -3.01)"/><path class="cls-2" d="M354.72,42.27c0-5,5.25-9.24,11.44-9.24C372,33,378,35.69,378.27,42.8h-7.72c-.13-2.32-2.39-3.19-4.19-3.19-2,0-3.92.73-3.92,3.06,0,1.26,1.46,2.13,3.25,2.6l5.19,1.26c7.19,1.86,8.12,6.85,8.12,9.31,0,6.32-6.25,9.58-12.71,9.58-6.12,0-12.37-3.72-12.5-10.44h7.58c.2,2.19,2.73,4.06,5.72,3.92,2.26-.06,4.06-1.33,4.06-3.12.07-1.6-1.13-2.4-3.39-2.93l-4.26-1.07C355.45,49.59,354.72,45.93,354.72,42.27Z" transform="translate(-3 -3.01)"/><path class="cls-1" d="M158.47,33c-3.06,0-8.18,1.66-9.64,5.45v-26l-8.12,4.27v48h8.12V48.19c0-5.39,4.06-7.25,7.45-7.25a6.55,6.55,0,0,1,6.58,6.92v16.9H171V47.46C171,38.35,166.52,33,158.47,33Z" transform="translate(-3 -3.01)"/><polygon class="cls-2" points="306.48 61.73 306.48 30.68 298.43 30.68 298.43 65.97 306.48 61.73"/><path class="cls-2" d="M340.55,33.69v4.19c-1.73-3.13-5.85-4.85-9.91-4.85-8.12,0-15.57,6.31-15.57,16.29,0,9.78,7.45,16.1,15.57,16.1,4.06,0,8.31-1.79,9.91-4.92C341,67,339,72.87,331.1,72.87a9.41,9.41,0,0,1-8.19-5l-6.52,3.44a16.27,16.27,0,0,0,14.71,9c10.78,0,17.37-6.12,17.37-20V33.69Zm-8.65,24a8.45,8.45,0,0,1,0-16.89c4.46,0,8.45,3,8.45,8.38A8.42,8.42,0,0,1,331.9,57.7Z" transform="translate(-3 -3.01)"/><polygon class="cls-3" points="51.72 50.79 79.26 58.92 79.26 58.92 51.72 50.79 51.72 50.79"/><polygon class="cls-3" points="38.63 29.59 38.77 0.1 38.77 0.1 38.63 29.59 38.63 29.59"/><path class="cls-4" d="M3,44.55A41.36,41.36,0,0,0,7.37,63.09l16.44-8V27L41.63,32.6l.15-29.49A41.55,41.55,0,0,0,3,44.55Z" transform="translate(-3 -3.01)"/><path class="cls-5" d="M44.54,3c-.93,0-1.85,0-2.76.1L41.63,32.6l13.09,4.09V53.8l27.54,8.13A41.52,41.52,0,0,0,44.54,3Z" transform="translate(-3 -3.01)"/><path class="cls-6" d="M54.72,53.8v31A41.58,41.58,0,0,0,82.26,61.93Z" transform="translate(-3 -3.01)"/><path class="cls-6" d="M23.81,80.54V55.09l-16.44,8A41.73,41.73,0,0,0,23.81,80.54Z" transform="translate(-3 -3.01)"/><path class="cls-1" d="M41.63,32.6h0L23.81,27V55.09h0V80.54l18-8.75V32.64ZM37.44,50.47a1.69,1.69,0,0,1,0-3.37,1.69,1.69,0,1,1,0,3.37Z" transform="translate(-3 -3.01)"/></svg>